# xmcd
#
# Track frame offsets: 
#        150
#        15256
#        30347
#        42739
#        54129
#        70365
#        86821
#        103742
#        116630
#        130156
#        149296
#        166510
#        179738
#        194949
#        215230
#        226590
#        238911
#        252117
#
# Disc length: 3572 seconds
#
# Revision: 1
# Processed by: cddbd v1.5.2PL0 Copyright (c) Steve Scherf et al.
# Submitted via: ExactAudioCopyFreeDBPlugin 1.0
#
DISCID=020df212
DTITLE=Bert Jansch - Santa Barbara Honeymoon
DYEAR=1975
DGENRE=Country
TTITLE0=Love Anew
TTITLE1=Mary And Joseph
TTITLE2=Be My Friend
TTITLE3=Baby Blue
TTITLE4=Dance Lady Dance
TTITLE5=You Are My Sunshine
TTITLE6=Lost Ang Gone
TTITLE7=Blues Run The Game
TTITLE8=Build Another Band
TTITLE9=When The Teardrops Fall
TTITLE10=Dynamite
TTITLE11=Buckrabbit
TTITLE12=Build Another Band - alternate
TTITLE13=When The Teardrops Fall - Live
TTITLE14=Lady Nothing - Live
TTITLE15=Dance Lady Dance - Live
TTITLE16=Angie - Live
TTITLE17=One For Jo - Live
EXTD=
EXTT0=
EXTT1=
EXTT2=
EXTT3=
EXTT4=
EXTT5=
EXTT6=
EXTT7=
EXTT8=
EXTT9=
EXTT10=
EXTT11=
EXTT12=
EXTT13=
EXTT14=
EXTT15=
EXTT16=
EXTT17=
PLAYORDER=
